Coordinates
version=1
nRows=13
nColumns=36
inDegrees=yes

Units are S.I. units (second, meters, Newtons, ...)
If the header above contains a line with 'inDegrees', this indicates whether rotational values are in degrees (yes) or radians (no).

endheader
time	pelvis_tilt	pelvis_list	pelvis_rotation	pelvis_tx	pelvis_ty	pelvis_tz	hip_flexion_r	hip_adduction_r	hip_rotation_r	knee_angle_r	knee_angle_r_beta	ankle_angle_r	subtalar_angle_r	mtp_angle_r	hip_flexion_l	hip_adduction_l	hip_rotation_l	knee_angle_l	knee_angle_l_beta	ankle_angle_l	subtalar_angle_l	mtp_angle_l	lumbar_extension	lumbar_bending	lumbar_rotation	arm_flex_r	arm_add_r	arm_rot_r	elbow_flex_r	pro_sup_r	arm_flex_l	arm_add_l	arm_rot_l	elbow_flex_l	pro_sup_l
      2.23333330	     -1.59803307	      1.76482910	      4.91515803	     -0.10083922	      1.06568716	      0.13740011	      4.84402013	      2.06144842	     -8.65020957	      1.11026556	      0.01937779	      7.96731544	     -0.63256294	     -7.49999988	      9.06476869	      1.88558446	     -3.21832689	      8.77144798	      0.15309065	      4.08622309	     -9.03116257	     -7.49999988	    -10.62878455	     -3.42505740	      0.19536657	     -6.87014823	    -17.45500207	     18.92872903	     25.37671131	     73.22408836	     -8.48344850	    -16.11090628	      8.08599745	     28.77029228	     69.18011201
      2.25000000	     -1.39587234	      1.92752183	      4.55840279	     -0.09974174	      1.06661853	      0.13748231	      4.11237006	      1.83628456	     -9.14310696	      0.84636505	      0.01477186	      7.53935149	     -0.19425676	     -7.49999987	      7.93552896	      2.05200194	     -3.96195981	      7.43742002	      0.12980747	      3.65391198	     -8.08355057	     -7.49999987	    -10.10402028	     -3.41698692	      0.57378448	     -7.20020570	    -17.96755154	     20.96633098	     26.04733748	     69.04157927	     -8.24035209	    -16.13199285	     12.06722668	     28.04405768	     65.91552913
      2.26666670	     -1.35451206	      2.05582963	      4.40230223	     -0.09739068	      1.06358772	      0.13723994	      3.79629603	      1.66324741	     -9.49617909	      0.68695472	      0.01198962	      7.45344772	      0.09025680	     -7.49999987	      7.21006818	      2.22240154	     -4.47139641	      6.40276834	      0.11174939	      3.32855113	     -7.61803626	     -7.49999987	     -9.49757969	     -3.38052067	      0.75960996	     -7.46777691	    -17.98286691	     21.04581956	     26.26555824	     68.31814251	     -8.09024147	    -15.92228655	     13.63784184	     27.85010533	     64.91076907
      2.28333330	     -1.15089070	      2.18005273	      4.29280261	     -0.09463547	      1.06144106	      0.13798377	      3.35883928	      1.54604344	     -9.61586325	      0.59921173	      0.01045822	      7.37995785	      0.15492956	     -7.49999987	      6.50805783	      2.32401237	     -4.87835461	      5.89547178	      0.10289539	      3.11058766	     -7.07992886	     -7.49999987	     -9.07449949	     -3.40761871	      0.82800506	     -7.41899410	    -17.70949066	     20.87213541	     26.20147229	     68.17609471	     -7.86626469	    -15.57683929	     14.57558283	     27.55772367	     64.40001649
      2.30000000	     -0.96842099	      2.19104457	      4.23016346	     -0.09601817	      1.05935989	      0.13826701	      3.10843048	      1.61472347	     -9.36806183	      0.59220752	      0.01033597	      7.50058742	      0.21616775	     -7.49999987	      6.16959744	      2.25701296	     -5.26196705	      5.90212841	      0.10301157	      3.43380254	     -6.59876409	     -7.49999987	     -8.76580757	     -3.28511521	      0.82069012	     -7.12113180	    -17.27324890	     20.70132526	     26.12372099	     65.80779316	     -7.34069363	    -15.23640834	     15.57164679	     27.40242160	     62.94982288
      2.31666670	     -0.77224827	      2.14090913	      4.35213205	     -0.09626190	      1.05605418	      0.13824490	      2.89360293	      1.77102536	     -9.05474978	      0.60962744	      0.01064001	      7.54233215	     -0.12240321	     -7.49999987	      5.95547073	      2.12363012	     -5.22591730	      6.15573609	      0.10743786	      3.38238295	     -6.89747340	     -7.49999987	     -8.53077542	     -3.07732983	      0.69414166	     -6.65518933	    -16.71340238	     20.13118409	     25.95681833	     66.09965787	     -6.67400354	    -14.92733053	     16.22127167	     27.37289190	     63.11375527
      2.33333330	     -0.57786876	      2.17353647	      4.43783701	     -0.09442015	      1.05566588	      0.13729036	      2.48534929	      1.75104338	     -8.92774827	      0.66631294	      0.01162935	      7.12693771	     -0.90182086	     -7.49999987	      5.73749301	      2.12783365	     -5.07724431	      6.39550411	      0.11162260	      3.34449437	     -7.22534703	     -7.49999987	     -8.39559722	     -2.96201918	      0.57697599	     -6.26081889	    -16.01986407	     19.00733505	     25.83245369	     68.53174441	     -5.82014368	    -14.60909304	     17.22593384	     27.38375219	     63.68775694
      2.35000000	     -0.34185907	      2.09510086	      4.42777037	     -0.09492707	      1.05608178	      0.13698585	      2.15502593	      1.84563677	     -8.61672984	      0.81512408	      0.01422660	      6.88337066	     -1.62053913	     -7.49999987	      5.67948622	      2.00725283	     -5.21428464	      6.81025394	      0.11886135	      3.40150997	     -7.63437012	     -7.49999987	     -8.44364602	     -2.72169408	      0.52681188	     -5.38652941	    -15.45093010	     19.10588661	     25.56195333	     68.47990135	     -4.64531615	    -14.29017431	     18.39319887	     27.38996016	     63.80659758
      2.36666670	     -0.18066325	      2.03958678	      4.55134055	     -0.09267798	      1.05394400	      0.13580017	      1.84620644	      1.85411661	     -8.75190031	      0.95435450	      0.01665663	      6.45040859	     -2.60821624	     -7.49999987	      5.73254726	      1.95607220	     -5.14158814	      7.19490399	      0.12557476	      3.35813604	     -8.15694814	     -7.49999987	     -8.40309603	     -2.52372626	      0.37242401	     -4.48885547	    -14.66297359	     18.51445347	     25.13394431	     67.15474612	     -3.62901311	    -13.77650758	     18.29419205	     27.34240729	     63.27767501
      2.38333330	     -0.12756702	      2.06700694	      4.62068556	     -0.09221545	      1.05669295	      0.13458067	      1.71516549	      1.75889653	     -8.65693592	      1.10388178	      0.01926637	      6.00857500	     -3.69978854	     -7.49999987	      5.71303764	      2.00893022	     -5.22989514	      7.26968894	      0.12688001	      3.17894733	     -8.49841029	     -7.49999987	     -8.20682161	     -2.45502670	      0.35868174	     -3.45345368	    -14.09373615	     19.64722523	     24.93715457	     67.23855713	     -2.14890418	    -13.59699523	     20.64063088	     26.99666094	     63.73754985
      2.40000000	     -0.21049358	      2.03500679	      4.89112641	     -0.09129555	      1.05963797	      0.13427298	      1.82590767	      1.74418647	     -8.48201512	      1.21606536	      0.02122434	      5.89778227	     -4.20400825	     -7.49999987	      5.86484512	      2.04230626	     -4.95220346	      7.15481348	      0.12487505	      3.26258017	     -8.64524243	     -7.49999987	     -7.87393628	     -2.32625122	      0.36012603	     -2.39613985	    -13.30201786	     19.60132215	     24.71718567	     65.75402932	     -0.96758061	    -13.16651521	     20.79887006	     26.87776605	     62.97941575
      2.41666670	     -0.01684106	      2.04687606	      5.16644915	     -0.08777316	      1.06070041	      0.13309229	      1.53950323	      1.70174811	     -8.23341061	      1.24455484	      0.02172158	      5.70036360	     -4.76323214	     -7.49999987	      5.51054836	      2.07783033	     -4.87928859	      6.86592338	      0.11983297	      3.51873660	     -8.19557774	     -7.49999987	     -7.88696261	     -2.17539702	      0.40458906	     -1.63601514	    -12.59711778	     17.78327057	     25.22902758	     71.93681130	      0.03368445	    -12.99812161	     21.04407502	     27.41376256	     65.87243296
      2.43333330	     -0.08570729	      2.00704203	      5.52945749	     -0.08418784	      1.05528371	      0.13233176	      1.48691776	      1.72537372	     -8.12767502	      1.21182077	      0.02115026	      5.96244477	     -4.87523027	     -7.49999987	      5.35994841	      2.09309778	     -4.64121797	      6.52839601	      0.11394201	      3.90010040	     -8.12337550	     -7.49999987	     -7.43098726	     -2.02897575	      0.31907676	     -0.93662487	    -11.95498949	     17.82558076	     25.63915264	     71.95532653	      0.98385823	    -12.82922206	     21.03622171	     27.85084667	     65.90032311
